PathFileType	4	(X/Y/Z)	Patient4_TMGait_0pt6_02_left_29.trc.trc
DataRate	CameraRate	NumFrames	NumMarkers	Units	OrigDataRate	OrigDataStartFrame	OrigNumFrames
82.840236686391	82.840236686391	5	33	mm	82.840236686391	89	       141
Frame#	Time	Sacral			L.Shoulder			Chest			R.Shoulder			Neck			R.ASIS			L.ASIS			R.Thigh.Superior			R.Thigh.Lateral			R.Thigh.Inferior			R.Patella			L.Thigh.Superior			L.Thigh.Lateral			L.Thigh.Inferior			L.Patella			L.Shank.Superior			L.Shank.Lateral			L.Shank.Inferior			R.Shank.Superior			R.Shank.Lateral			R.Shank.Inferior			R.Heel			R.Midfoot.Superior			R.Midfoot.Lateral			R.Toe			L.Heel			L.Midfoot.Lateral			L.Midfoot.Superior			L.Toe			L.Elbow			L.Wrist			R.Elbow			R.Wrist			
		X1	Y1	Z1	X2	Y2	Z2	X3	Y3	Z3	X4	Y4	Z4	X5	Y5	Z5	X6	Y6	Z6	X7	Y7	Z7	X8	Y8	Z8	X9	Y9	Z9	X10	Y10	Z10	X11	Y11	Z11	X12	Y12	Z12	X13	Y13	Z13	X14	Y14	Z14	X15	Y15	Z15	X16	Y16	Z16	X17	Y17	Z17	X18	Y18	Z18	X19	Y19	Z19	X20	Y20	Z20	X21	Y21	Z21	X22	Y22	Z22	X23	Y23	Z23	X24	Y24	Z24	X25	Y25	Z25	X26	Y26	Z26	X27	Y27	Z27	X28	Y28	Z28	X29	Y29	Z29	X30	Y30	Z30	X31	Y31	Z31	X32	Y32	Z32	X33	Y33	Z33	

89	36.522285714286	879.466243570186	1012.739505472968	471.681663788680	1083.019055041065	1423.202280176370	277.531076022598	1178.212012892491	1353.751314875836	442.192908828684	1096.349711303227	1442.643851411176	609.088817372586	1084.208655393765	1490.140701753445	425.435360625599	1101.374776966282	938.704366980819	594.693452743140	1103.861901542690	964.352693762670	314.781922937844	1154.685681634406	747.521589998247	570.920854340089	1078.174975536042	636.734388372523	631.401914657871	1161.271257398874	588.305448029774	554.452886298110	1168.130446129580	503.593304893334	563.627329334241	1115.550010855861	736.735773188646	343.505696215281	1015.851555779973	630.499710867124	278.931632741391	1094.101259890158	539.346657606528	335.585579238576	1082.138342149022	457.533871044374	335.016878240714	1019.348729679505	400.905775195518	330.849047851380	884.373265551593	342.399769830068	282.891742862870	883.077075105672	214.936469740022	343.929608272942	1151.412063472817	413.826118067551	573.594500609642	1089.654450472304	304.080572726495	634.808466688526	1147.494189211858	213.426720046963	577.856611077664	1033.586027237553	42.905320467104	545.419185043093	1202.230730466681	99.472473595492	588.005787421484	1114.491036110259	37.474491838793	623.488754011727	1322.366006599748	48.355650503057	618.538200038365	701.126952375429	121.390984369568	384.212513738196	767.170358765395	81.422556192561	308.846965938457	867.116266579173	111.346623557206	329.920382028845	965.117199471817	34.826463775003	313.814193082716	1061.570338329169	1069.815201243215	166.132239308660	1299.019711076017	970.417244143833	184.418264273420	986.809131914587	1126.401290509642	752.921303471698	1050.149751804174	872.020679787448	746.531483811296	
90	36.534357142857	879.025979965338	1013.552464478418	474.657175537066	1082.240692358044	1424.458463111202	280.270330882054	1178.268383085737	1354.369445805302	444.236582935438	1097.306751365765	1442.715043546639	611.760224983240	1084.181280212695	1490.837929020931	428.456427842070	1101.567290180759	939.603385259738	596.417496865411	1103.407177897637	965.798572212323	316.355396766726	1152.576992637597	746.839139171832	573.492047419994	1074.152011970583	636.983101194758	633.204046908998	1156.631709755258	587.681829285858	556.171189193333	1162.513198419543	503.221367234536	564.717520150602	1119.612609915852	739.050362083546	345.593799729220	1024.721871937666	630.041990836627	280.004500820237	1106.107299662404	540.725064754442	336.707037552267	1095.208505386413	457.472151467662	335.324363137783	1030.110242196437	401.173118230853	331.283662897368	893.085704915626	347.806292343710	283.082030298500	887.215370489143	220.237971092426	343.300553960707	1145.502279053662	413.671595343163	574.665162754944	1083.419880563658	304.065956578182	635.623695336887	1140.838483454511	213.303796209552	578.342014600408	1026.404662292812	42.892398959654	545.569985210618	1195.069276754072	99.455521102800	588.188189628332	1107.274714130737	37.442997863470	623.672396323043	1315.173689876457	48.299753571683	618.771068538878	701.810693582777	136.701902616149	383.068736518136	765.201370095049	92.059033436963	308.106881857276	866.680066774758	115.471719050991	329.093528747980	958.390807369404	33.472920337258	313.917541781121	1056.206084833710	1070.910215043198	169.649916659675	1289.692172356279	960.820093659665	186.746632319454	992.661785795371	1125.290277333761	757.272686331959	1067.148502716085	874.312774339390	747.848064860083	
91	36.546428571429	878.417675453980	1014.129990144916	477.580354390788	1081.159249959588	1425.382538508401	282.830183055718	1178.208937856881	1354.766025475192	446.063313490528	1098.181499604322	1442.510147659752	614.280991542188	1084.008459924770	1491.271918626412	431.302938244692	1101.645469388656	940.262236437068	597.936609238314	1102.041209693745	966.299171373668	318.167949891120	1150.234024174170	745.949071751572	576.004360313762	1070.095337390572	637.113917285276	635.024145134938	1151.888641815173	586.996826973781	557.818443817552	1156.875092540590	502.757226098401	565.834193462750	1123.728112794185	741.472989816884	347.687157200898	1033.839446932282	629.811978364396	281.095735869785	1118.184263186393	542.536408403796	338.092495783237	1108.537003932882	457.945914869355	336.105212574550	1041.368914589705	401.812753290975	332.014784621628	902.623472462795	353.461979090700	283.346834027961	892.193198840648	225.986792222153	342.896030822686	1139.563872877443	413.413595754334	575.727701716060	1077.144178646711	303.929422082490	636.406407970350	1134.160503677255	213.086427340149	578.795298686718	1019.173862888475	42.837868479262	545.671526836886	1187.871383951759	99.358548493855	588.306614455689	1100.004284699853	37.360294579478	623.811168709801	1307.950123695320	48.112170592504	618.943732058059	703.843351243648	152.829789537397	381.960754954556	764.328425109337	103.689305449918	307.378644679221	867.017834278353	120.251450146904	328.488245920847	951.980785216026	31.999802415738	314.041379011200	1051.058489250068	1071.651542404351	172.849260306469	1279.760989182875	950.431824583094	188.931335799924	998.425455631056	1124.138671992828	761.700832626026	1084.469037720465	877.264425845413	749.021106211422	
92	36.558500000000	877.621732044037	1014.535895561464	480.387258656672	1079.838986913495	1425.994968035893	285.166196509586	1178.046751526212	1354.948446169864	447.648923632478	1098.996611092455	1442.083277327756	616.604451656673	1083.734654937820	1491.476136136050	433.916558384477	1101.550376308332	940.718710627919	599.292084352082	1099.759661936188	965.847793707958	320.219372422704	1147.757404323252	745.001903761541	578.327222092101	1066.207045853603	637.202970302450	636.849096651738	1147.214382250618	586.325735916600	559.371243049397	1151.357279385703	502.241507440104	566.987778997079	1127.790685062036	744.048462572722	349.830381925872	1043.033146904925	629.923910150545	282.237307851777	1130.099761797237	544.860923403475	339.779895799093	1121.911234594616	459.041863108025	337.361876731384	1052.931481481237	402.904988556641	333.051486168913	912.789834067469	359.323212960054	283.732476344872	897.951601246946	232.094390168108	342.747476790205	1133.726174220067	413.082435520331	576.770315952087	1070.951190156093	303.720402829890	637.188140128036	1127.522993501973	212.802614439952	579.219507861422	1011.906654533423	42.765281399285	545.750207055166	1180.654576384544	99.209893669582	588.387426442675	1092.697291052930	37.251071031112	623.926015961164	1300.708860225985	47.831128953296	619.071268977557	707.222729676390	169.312955147453	380.951692094063	764.663694240572	115.980015340821	306.706174428572	868.219025021461	125.616447286639	328.109240849203	946.171162640624	30.538274808075	314.175027441216	1046.187323632560	1072.029362771187	175.759670885857	1269.163822877640	939.300664222249	190.962789741384	1004.207642715305	1122.953858000997	766.122039443749	1102.038688150888	880.935237183272	749.985524227393	
93	36.570571428571	876.628365912652	1014.847453132351	483.032622952096	1078.371785275349	1426.335230361556	287.240256579449	1177.800408484309	1354.937066109607	448.980398471529	1099.776562542459	1441.514196919683	618.684558275396	1083.413153203315	1491.499185535507	436.240426132562	1101.230144382467	941.020989686631	600.541964740691	1096.669936220468	964.569974055456	322.469553681603	1145.254589801107	744.125567342502	580.365537936018	1062.621022322079	637.305658861138	638.647652290787	1142.748414301990	585.726994850959	560.813476300573	1146.080856454847	501.707032068473	568.160990628505	1131.686452905174	746.826853653215	352.074970306868	1052.138361212091	630.484250883587	283.445252854210	1141.653857199640	547.764395603117	341.773555141281	1135.141034510484	460.828139627379	339.039871110604	1064.619636943616	404.518499628191	334.364136978812	923.381582858911	365.330018500827	284.276021414945	904.443949427940	238.438523597280	342.862713070331	1128.094568548972	412.705560549472	577.774091744411	1064.932249908815	303.486066951010	637.978560141445	1120.974303629741	212.479705104980	579.614080187129	1004.615337480215	42.693119812299	545.828394000757	1173.431686505996	99.039200557973	588.454750545050	1085.369989730031	37.136494899190	624.034395386337	1293.460049376837	47.500045293459	619.171748330818	711.910364299498	185.586129017529	380.112664684399	766.314746888170	128.493298967896	306.137808780180	870.407352429670	131.435895732331	327.941857045648	941.357023922716	29.261097674518	314.297244944201	1041.635999149027	1072.069992914911	178.430849085963	1257.818855256852	927.510857452800	192.833627157914	1010.114703003009	1121.771315482279	770.437043658707	1119.803887616011	885.408392741119	750.667460611047	
